<?xml version="1.0" encoding="UTF-8"?>
<svg width="64px" height="56px" viewBox="0 0 64 56" version="1.1" xmlns="http://www.w3.org/2000/svg" xmlns:xlink="http://www.w3.org/1999/xlink">
    <!-- Generator: Sketch 55.2 (78181) - https://sketchapp.com -->
    <title>Group</title>
    <desc>Created with Sketch.</desc>
    <g id="Welcome" stroke="none" stroke-width="1" fill="none" fill-rule="evenodd">
        <g id="desktopHD" transform="translate(-56.000000, -16.000000)" fill="#1D1F20">
            <g id="header">
                <g id="Group" transform="translate(56.000000, 16.000000)">
                    <path d="M21.4201866,21.8287176 C21.7501472,23.3447437 21.0930796,25.0719897 19.8160426,25.9770638 C18.3906124,26.9877478 15.1413023,27.5918514 15.1413023,28.6731824 C15.1413023,29.4791344 16.3805276,31.126362 16.8503203,31.8043565 C20.4656192,37.0199764 22.3572749,44.0259199 20.0885723,50.0255047 C19.0954798,52.6509764 17.2516238,55.0699138 14.4128918,55.8163927 C12.7887718,56.2435184 11.0690524,55.923084 9.74564253,54.8795996 C7.31463491,52.9623997 8.64268207,50.6234808 10.1765533,48.6201349 C12.1227863,46.0786466 13.0063675,42.8436647 12.5009034,39.6714 C12.2622616,38.1748379 11.7867615,36.7265752 11.1735697,35.3453551 C10.9481263,34.8371295 9.4920187,30.8754932 8.63019707,31.9160941 C7.57824674,33.1859371 6.45531028,34.4074807 4.87292586,35.0490704 C4.04071151,35.3864457 3.11717831,35.4765566 2.24608211,35.2628135 C-1.16624642,34.424782 -0.149967518,30.4890976 1.73883444,28.6165927 C2.75618349,27.6084318 3.99398194,26.8630343 5.12333926,25.985354 C5.4522298,25.7297994 5.78147706,25.4511765 5.9651849,25.0755942 C6.41000757,24.1651135 5.85852733,23.1014442 5.32666639,22.2403443 C4.17126892,20.370723 3.02229232,18.4600111 2.41552138,16.342765 C1.80839372,14.2255189 1.79733558,11.8444281 2.85392319,9.91605447 C3.88233038,8.03958475 5.79110834,6.80650697 7.77693658,6.04885438 C11.1461027,4.76243094 14.944396,4.65537917 18.3795543,5.74968614 C19.8688363,6.22403 21.3199499,6.93878979 22.4072149,8.07202468 C23.830148,9.55525036 24.5596287,11.8368588 23.4869889,13.7908239 C23.1966235,14.3192343 22.7749873,14.772312 22.2620322,15.0830144 C19.1086782,16.9937263 16.1211963,12.4377184 13.2938792,13.9177001 C12.6917455,14.2323674 12.2383617,14.7827648 11.9847379,15.4178666 C11.3886684,16.9108243 11.7867615,18.5097524 12.2283737,19.9601777 C12.3842579,20.4712868 12.734908,20.9167952 13.2246766,21.1190041 C14.4203828,21.6124514 15.3232266,20.2874605 16.3384353,19.6199188 C17.8990602,18.5937357 20.2498071,19.3139022 21.1155526,20.9798728 C21.2557413,21.2498451 21.3563347,21.5353165 21.4201866,21.8287176" id="Fill-1"></path>
                    <path d="M25.506048,2.42186049 C25.3819193,2.79053557 25.3070013,3.17442469 25.2860684,3.55229896 C25.1960934,5.17524771 25.8200424,6.74300134 26.232091,8.31889272 C27.3683465,12.6701078 26.8960697,17.2672243 25.9540867,21.661251 C25.2478749,24.955975 24.2816538,28.1919657 23.537983,31.4785519 C22.9426792,34.1091653 22.372348,37.4488238 24.5776531,39.6127554 C25.5427725,40.5599178 26.9621737,40.9820189 28.3397091,40.9993559 C29.7172444,41.0170466 31.0701743,40.6678314 32.3816055,40.2602366 C37.5704076,38.6471947 42.380213,36.0930052 47.1532939,33.5540298 C47.820945,33.1991535 48.5315637,32.8004042 48.844089,32.1302788 C49.1812198,31.4067275 48.9428779,30.5168831 48.4048642,29.9168131 C47.8668506,29.3163893 47.0783759,28.9707122 46.2781495,28.7838979 C42.927775,28.0019671 39.5722591,29.7190306 36.2233536,30.5069763 C35.2901845,30.7266953 34.242435,30.8593759 33.4194394,30.3810182 C32.3437793,29.7558273 32.0966236,28.3717036 32.0632043,27.1620106 C31.9482566,22.9739041 33.0756982,18.8593911 33.6533743,14.70702 C34.2303159,10.5550026 34.1932242,6.08773623 31.9769017,2.48377809 C31.1469284,1.13432822 29.7580085,-0.158865088 28.1402951,0.015919452 C26.854571,0.154614876 25.9144243,1.20686026 25.506048,2.42186049" id="Fill-3"></path>
                    <path d="M42.8437006,4.18190202 C45.5294154,3.38141823 48.1888692,5.31719839 48.2495533,8.13903744 C48.291074,10.0466491 47.5884161,11.7545856 46.955669,13.5127974 C46.438967,14.9483198 46.0730881,16.804943 47.3577455,17.9719734 C48.4379934,18.9532346 50.1453102,18.7770925 51.4821347,18.1962515 C53.9559874,17.1215708 55.8726821,14.8313671 56.5008157,12.1974367 C56.7832984,11.0143609 56.8198508,9.77601787 57.1811163,8.61504896 C57.4951831,7.60668899 58.3543422,6.31236554 59.5208253,6.03709896 C60.6926316,5.76076268 61.9325744,6.43502319 62.6394909,7.41378844 C63.3467623,8.39255369 63.6161145,9.61913018 63.7740351,10.8182513 C64.1679494,13.8030396 63.9752507,16.8320417 63.736418,19.8335885 C63.2080051,26.4713641 62.4407594,33.1601281 60.2355491,39.4399145 C59.8072116,40.6600729 59.3107377,41.8859362 58.4742908,42.8696934 C57.3454247,44.1975337 55.7062444,44.9612915 54.0947446,45.6155845 C50.932429,46.8995676 47.6636501,47.9182679 44.3331225,48.6574229 C43.2234198,48.9038079 42.0761001,49.119885 40.9564608,48.9237754 C39.8364666,48.7273092 38.7367005,48.0352206 38.3591106,46.9576874 C37.8821549,45.595617 38.674242,44.1016183 39.6852887,43.0754302 C43.637917,39.0630275 50.6361061,39.2537887 54.270764,34.9490044 C56.616151,32.1710226 56.9270239,28.1921368 56.5284962,24.5719533 C56.4887499,24.2139641 56.4113865,23.8060561 56.1012234,23.6256353 C55.7921249,23.4459276 55.4031788,23.5807084 55.0731425,23.7197679 C53.0155614,24.586929 50.9572705,25.5118532 48.7644809,25.9261793 C46.5713364,26.3405055 44.1876226,26.1968106 42.2808645,25.0319195 C40.1303054,23.7179851 38.8662309,21.2676846 38.4041801,18.7813713 C37.6018015,14.4648204 37.5361491,6.06776337 42.6360971,4.24964897 C42.7049434,4.22540269 42.7741446,4.20258267 42.8437006,4.18190202" id="Fill-5"></path>
                </g>
            </g>
        </g>
    </g>
</svg>