<?xml version="1.0" encoding="UTF-8"?>
<svg width="788px" height="414px" viewBox="0 0 788 414" version="1.1" xmlns="http://www.w3.org/2000/svg" xmlns:xlink="http://www.w3.org/1999/xlink">
    <!-- Generator: Sketch 55.2 (78181) - https://sketchapp.com -->
    <title>children</title>
    <desc>Created with Sketch.</desc>
    <g id="Welcome" stroke="none" stroke-width="1" fill="none" fill-rule="evenodd">
        <g id="desktopHD" transform="translate(-328.000000, -1501.000000)">
            <g id="together" transform="translate(0.000000, 1189.000000)">
                <g id="children" transform="translate(328.000000, 312.000000)">
                    <g id="Group-2" transform="translate(427.000000, 45.000000)">
                        <rect id="Rectangle" fill="#9EDAE3" x="159" y="206" width="6" height="141"></rect>
                        <path d="M148,178 C152.249263,179.333333 156.662802,180 161.240615,180 C165.818428,180 170.404889,179.333333 175,178 L175,183 C170.5,184.333333 166,185 161.5,185 C157,185 152.5,184.333333 148,183 L148,178 Z" id="Rectangle" fill="#9EDAE3" transform="translate(161.500000, 181.500000) scale(1, -1) translate(-161.500000, -181.500000) "></path>
                        <g id="Group-11">
                            <path d="M104.24359,335.355753 L108.700371,335.355753 C111.600514,333.195881 113.570405,332.370047 114.610043,332.878252 C115.649681,333.386458 115.649681,335.175231 114.610043,338.244572 C126.675181,337.751138 134.22664,338.292362 137.26442,339.868245 C140.3022,341.444127 141.585579,344.488046 141.114556,349 L104.24359,349 L104.24359,335.355753 Z" id="Rectangle" fill="#387DCB"></path>
                            <path d="M42.8803419,337.692575 L46.8997716,337.692575 C47.1500466,335.310298 47.7739337,333.811136 48.7714328,333.195087 C49.768932,332.579039 51.5724733,332.579039 54.1820568,333.195087 L54.1820568,337.033146 C63.1408307,336.484134 69.276142,337.086318 72.5879909,338.839699 C75.8998397,340.593079 77.2990049,343.979846 76.7854866,349 L42.8803419,349 L42.8803419,337.692575 Z" id="Rectangle" fill="#387DCB" transform="translate(59.884615, 340.866525) scale(-1, 1) translate(-59.884615, -340.866525) "></path>
                            <path d="M85.1244972,231.078813 C84.5968427,234.635402 84.0768484,238.645001 83.5645144,243.107609 C81.1666086,263.994208 78.3012838,296.497238 74.9685401,340.616697 C70.8876082,341.015884 67.8598677,340.936692 65.8853187,340.379119 C63.9107698,339.821547 61.6640966,338.533156 59.1452991,336.513946 C59.1452991,304.01889 59.1452991,281.012115 59.1452991,267.493621 C59.1452991,257.550606 61.8161469,237.546975 67.1578426,207.48273 C67.0184699,207.33317 66.8785829,207.183559 66.7381815,207.033898 L107.968202,209.192031 C112.237587,237.096498 115.40731,258.789408 117.47737,274.270759 C119.547429,289.752111 119.547429,310.44525 117.47737,336.350175 C114.493234,337.542064 111.974827,338.21217 109.922147,338.360494 C107.869467,338.508819 104.752971,338.245884 100.572659,337.571691 C99.5568973,295.504865 97.3527116,267.163979 93.9601017,252.549031 C92.3286738,245.521039 89.3834723,238.3643 85.1244972,231.078813 Z" id="Combined-Shape" fill="#9EDAE3" transform="translate(89.087607, 273.950212) scale(-1, 1) translate(-89.087607, -273.950212) "></path>
                            <g id="Group-8" transform="translate(16.848558, 21.269329) scale(1, -1) rotate(18.000000) translate(-16.848558, -21.269329) translate(5.348558, 3.269329)" fill="#A5775A">
                                <rect id="Rectangle" x="4.65069698" y="-4.54747351e-13" width="10.089872" height="20.2166083"></rect>
                                <path d="M3.70131578,16.7395594 C4.34114094,15.9616272 2.69159143,11.7135414 6.11135025,11.1992126 C10.0590712,10.6054788 8.01553443,13.5081489 9.69676949,13.5081489 C10.4880915,13.5081489 6.97875744,11.1992126 11.3228836,11.1992126 C15.5780142,11.1992126 12.9342127,13.5081489 14.9800333,13.5081489 C15.4463398,13.5081489 13.5262677,10.4179739 16.7161853,12.2130863 C20.0664675,14.0984433 19.1430784,16.5268357 19.4706779,16.7395594 C20.1288157,17.1669152 18.5124274,11.7512714 20.4966607,14.2604883 C22.4808939,16.7697053 22.7163309,20.151854 20.1288157,28.7276935 C18.4038056,34.4449199 17.2662621,36.5989045 16.7161853,35.1896473 L8.01553443,35.1896473 C5.18577511,30.732009 3.25626328,27.5819508 2.22699895,25.7394726 C-1.36010406,19.3182268 0.190575665,16.4595339 1.35177536,14.2604883 C3.76336175,9.69349748 3.06149061,17.5174916 3.70131578,16.7395594 Z" id="Rectangle" transform="translate(11.013752, 23.363401) scale(-1, -1) translate(-11.013752, -23.363401) "></path>
                            </g>
                            <g id="Group" transform="translate(160.363248, 202.955508) scale(1, -1) translate(-160.363248, -202.955508) translate(147.863248, 175.955508)" fill="#A5775A">
                                <path d="M4.71590892,4.85134293 C5.34935013,4.10630572 3.34570574,1.0734064 6.73134337,0.580826088 C10.6396752,0.0121983835 8.98708176,1.75657297 10.651542,1.75657297 C11.4349685,1.75657297 8.9242745,0 13.2250564,0 C17.4377308,0 13.8566832,1.75657297 15.8820913,1.75657297 C16.3437451,1.75657297 16.3556116,0.0373670612 19.5137013,1.75657297 C22.8305556,3.56220738 20.0035989,4.64761425 20.3279297,4.85134293 C20.9795008,5.26062789 21.6473014,2.8527521 23.6117366,5.25586653 C25.5761719,7.65898095 23.5411986,8.11934823 20.9795008,16.3325574 C19.2717022,21.8080302 18.1455088,23.8709333 17.6009205,22.5212667 L8.98708176,22.5212667 C6.39164125,18.0309987 4.48138144,15.014141 3.25630233,13.4706937 C-1.52247664,7.4500264 0.0480371124,7.66774269 1.19765075,5.56168403 C3.58517515,1.18780894 4.08246772,5.59638014 4.71590892,4.85134293 Z" id="Rectangle"></path>
                                <rect id="Rectangle" x="8.87179487" y="19.9639831" width="10.3504274" height="33.2733051"></rect>
                            </g>
                            <g id="Group-3" transform="translate(49.534188, 4.436441)">
                                <path d="M52.4438382,63.2049587 C47.1757757,62.5036045 43.6272254,61.9241945 41.7981873,61.4667287 C39.9691492,61.0092628 37.1303089,59.5583399 33.2816665,57.1139599" id="Line" stroke="#1D1F20" stroke-linecap="square"></path>
                                <path d="M45.3840907,85.5386211 C50.881156,85.5386211 84.7169694,68.4946645 84.7169694,47.4698784 C84.7169694,26.4450923 67.1070398,9.40113567 45.3840907,9.40113567 C23.6611417,9.40113567 6.0512121,26.4450923 6.0512121,47.4698784 C6.0512121,68.4946645 37.3511376,85.5386211 45.3840907,85.5386211 Z" id="Oval" fill="#A5775A"></path>
                                <ellipse id="Oval" fill="#1D1F20" cx="85.2212371" cy="53.053294" rx="3.52987372" ry="4.06066589"></ellipse>
                                <ellipse id="Oval-Copy-2" fill="#1D1F20" cx="3.52987372" cy="44.9319622" rx="3.52987372" ry="4.06066589"></ellipse>
                                <path d="M42.8736808,55.3268201 C43.8267884,55.2471496 44.4975489,55.0290736 44.8859623,54.6725918 C45.2743757,54.3161101 45.6141072,53.6067673 45.9051568,52.5445633" id="Line-4" stroke="#1D1F20" stroke-linecap="round" transform="translate(44.389419, 53.935692) rotate(-15.000000) translate(-44.389419, -53.935692) "></path>
                                <path d="M33.2816665,59.1442928 C33.2816665,65.1040496 34.7814651,68.6981277 37.7810622,69.9265272 C40.7806594,71.1549268 44.3235375,69.4407015 48.4096968,64.7838515" id="Line-2" stroke="#1D1F20" stroke-linecap="square"></path>
                                <path d="M58.3682581,49.8481906 C59.8989201,49.8495766 60.3839807,48.0673123 60.3820067,45.8682338 C60.3800208,43.6691554 59.4760001,42.743933 58.3618609,42.7429227 C57.2477216,42.7419141 56.3453656,43.6654999 56.3473423,45.8645783 C56.3493255,48.0636567 56.8375962,49.8468029 58.3682581,49.8481906 Z" id="Oval" fill="#1D1F20" transform="translate(58.364675, 46.295557) rotate(8.000000) translate(-58.364675, -46.295557) "></path>
                                <path d="M26.6967549,48.2249487 C28.2274169,48.2263347 28.7124775,46.4440704 28.7105035,44.244992 C28.7085176,42.0459136 27.804497,41.1206911 26.6903577,41.1196808 C25.5762184,41.1186722 24.6738624,42.042258 24.6758391,44.2413364 C24.6778223,46.4404148 25.166093,48.223561 26.6967549,48.2249487 Z" id="Oval-Copy" fill="#1D1F20" transform="translate(26.693171, 44.672315) rotate(8.000000) translate(-26.693171, -44.672315) "></path>
                                <path d="M60.512121,36.8299909 C62.1661336,36.8174479 63.7765015,37.3603734 65.0852872,38.3718055 L65.7174265,38.8603238" id="Line-3" stroke="#1D1F20" stroke-linecap="round"></path>
                                <path d="M22.1877777,36.8299909 C23.8417903,36.8174479 25.4521582,37.3603734 26.7609439,38.3718055 L27.3930832,38.8603238" id="Line-3-Copy" stroke="#1D1F20" stroke-linecap="round" transform="translate(24.790430, 37.835477) scale(-1, 1) translate(-24.790430, -37.835477) "></path>
                                <path d="M42.0068401,1.27980389 C44.7308347,1.27980389 72.5112251,-4.81119495 74.899362,11.5439882 C74.899362,11.5439882 83.9133839,15.548813 86.2297724,18.5376339 C88.7511108,21.7909003 88.3485867,23.2289066 89.7596461,28.1717756 C89.9991955,29.0109047 92.4906595,33.8364164 90.7681815,40.8712963 C89.7379473,45.07894 86.7123412,51.5083276 81.6913633,60.1594593 C81.6913633,55.4249225 81.6913633,48.3252107 81.6913633,38.8603238 C81.6913633,34.7708505 79.0203022,37.9150802 74.899362,33.8833701 C70.7386655,29.8127644 70.7386655,28.1717756 68.8731397,25.9051016 C68.1157992,24.9849085 63.4335625,28.0599973 56.2618946,28.1717756 C52.1503026,28.2358594 40.5161883,27.0890802 35.7243286,27.9672665 C30.9324688,28.8454527 30.2314464,28.8454527 22.1877777,31.503949 C18.7610492,32.6365099 11.5627558,31.503949 11.5627558,31.503949 C10.6591996,37.7488472 9.16971845,45.2955462 7.09431249,54.1440459 C4.53703601,52.4528549 3.25839777,46.6750498 3.25839777,36.8106304 C3.25839777,31.7503324 5.04267675,25.9051016 5.04267675,25.9051016 C1.69281477,19.3547393 9.66326284,11.5337678 16.8480727,7.51044381 C23.7595527,3.64017812 29.8044016,1.27980389 42.0068401,1.27980389 Z" id="Rectangle" fill="#9EDAE3"></path>
                            </g>
                            <path d="M75.5827568,94.3016215 C87.7568173,86.8712109 101.141802,86.8712109 114.052965,94.3016215 C122.660408,99.2552285 122.660408,105.284632 114.052965,112.389831 L75.5827568,112.389831 C67.4667164,105.284632 67.4667164,99.2552285 75.5827568,94.3016215 Z" id="Rectangle" fill="#387DCB"></path>
                            <path d="M86.9540592,85.7711864 L102.039138,85.7711864 L107.940171,109.068037 C103.001605,112.406795 98.8545138,114.004007 95.4988972,113.859672 C92.1432806,113.715338 87.1721382,111.725924 80.5854701,107.891432 L86.9540592,85.7711864 Z" id="Rectangle" fill="#A5775A"></path>
                            <rect id="Rectangle" fill="#F3E6CB" x="70.2350427" y="104.995763" width="41.4017094" height="104.995763"></rect>
                            <path d="M82.0027282,97.6540328 C84.8369871,129.69268 85.7903798,152.295338 84.8629062,165.462007 C83.9470307,178.464025 80.5777893,191.055567 74.755182,203.236632 C52.9277594,199.86741 60.9474238,189.976677 60.9474238,180.667268 C60.9474238,169.220357 61.9583985,167.58699 60.9474238,144.31605 C60.6515942,137.506549 56.8610009,135.173893 54.1259691,131.266998 C49.2960888,127.955688 44.7178463,122.588628 40.3912416,115.16582 C28.7839859,95.2521822 19.2967043,69.5331729 11.9293966,38.0087918 C11.5147192,36.2344054 12.098173,34.3749238 13.4522227,33.1555165 C14.9405239,31.815203 16.3592086,30.9765442 17.7082768,30.6395401 C19.2229944,30.261156 21.36457,30.3366688 24.1330035,30.8660784 C25.8065552,31.186113 27.2019307,32.3363608 27.8354373,33.9180899 C27.8602364,33.9800088 27.8732244,34.012434 27.8744014,34.0153653 C38.5642319,60.6392809 49.0133917,86.3202041 55.5633736,99.0709129 C62.0335373,104.912749 70.6959697,104.509858 81.5506708,97.8622399 C81.675047,97.7860696 81.8257328,97.7166672 82.0027282,97.6540328 Z M105.038524,99.240535 C111.215954,100.119726 115.013592,100.559322 116.431438,100.559322 C118.61674,100.559322 125.510566,104.178831 131.02343,108.156493 C132.839669,109.263925 134.083668,110.160339 134.755425,110.845735 C143.559,119.828042 157.17677,135.620006 161.378319,146.430324 C163.772961,152.591585 167.377807,155.003198 170.724567,172.262253 C171.950453,178.584082 172.096747,187.385317 171.163448,198.665958 C170.941388,201.349966 168.633357,203.375859 165.943212,203.248061 L157.113846,202.828618 C157.053096,202.825732 156.992403,202.821738 156.931798,202.816637 C154.1801,202.58506 152.137139,200.166638 152.368719,197.41494 C152.877823,191.36554 151.226034,182.236739 147.413353,170.028538 C146.33701,166.582089 144.17613,161.716788 142.760277,158.9052 C140.630896,154.676692 138.239124,148.836107 129.869342,144.065041 C128.48882,152.252149 127.810208,160.153911 127.946976,165.000751 C128.499604,184.58504 139.116831,201.421808 105.266752,204.076271 C102.089602,189.979818 100.501028,176.42367 100.501028,163.407827 C100.501028,149.847841 102.013526,128.458744 105.038524,99.240535 Z" id="Combined-Shape" fill="#387DCB"></path>
                        </g>
                        <path d="M148,181 C152.249263,182.714286 156.662802,183.571429 161.240615,183.571429 C165.818428,183.571429 170.404889,182.714286 175,181 L175,187.428571 C170.5,189.142857 166,190 161.5,190 C157,190 152.5,189.142857 148,187.428571 L148,181 Z" id="Rectangle" fill="#9EDAE3"></path>
                    </g>
                    <g id="Group-8" transform="translate(138.000000, 0.000000)">
                        <rect id="Rectangle" fill="#F3E6CB" x="7.68814192" y="250.41769" width="10.5711951" height="21.1891892"></rect>
                        <g id="Group-4">
                            <path d="M40.0795424,113.701657 C60.0206605,101.662345 85.312859,97.7592138 105.253977,109.798526 C118.548056,117.824734 115.595174,130.827191 96.3953314,148.805897 L65.0470094,154.464373 C35.1079526,135.315437 26.7854636,121.727865 40.0795424,113.701657 Z" id="Rectangle" fill="#F77C68"></path>
                            <path d="M119.1662,372.508287 L127.832833,372.508287 L127.832833,380.521281 C134.702799,379.994664 139.407615,380.572285 141.947281,382.254144 C144.486946,383.936003 145.559886,387.184621 145.166098,392 L119.1662,392 L119.1662,372.508287 Z" id="Rectangle" fill="#A5DCC4"></path>
                            <path d="M36.833189,372.508287 L45.4998217,372.508287 L45.4998217,380.521281 C52.3697882,379.994664 57.0746043,380.572285 59.61427,382.254144 C62.1539357,383.936003 63.2268747,387.184621 62.8330872,392 L36.833189,392 L36.833189,372.508287 Z" id="Rectangle" fill="#A5DCC4" transform="translate(49.872785, 382.254144) scale(-1, 1) translate(-49.872785, -382.254144) "></path>
                            <path d="M87.3516582,239.862624 L114.198333,236.728681 C122.170193,266.780294 127.271145,290.103707 129.50119,306.698921 C131.731235,323.294134 132.851648,345.428402 132.86243,373.101725 L114.198333,373.101725 C109.424567,344.499662 105.21028,322.365394 101.555471,306.698921 C98.5766588,293.93013 93.0955948,276.977234 85.1122792,255.840231 C84.5505269,260.339959 83.9185361,265.633004 83.2163069,271.719366 C80.6330783,294.108727 76.3131066,329.122113 70.2563918,376.759522 L51.3196766,376.759522 C50.7772188,329.658803 50.7772188,294.645418 51.3196766,271.719366 C51.8621345,248.793314 52.994017,235.969623 54.7153241,233.248291 L88.1145536,236.757213 C87.929887,237.005884 87.6755885,238.041021 87.3516582,239.862624 Z" id="Combined-Shape" fill="#387DCB"></path>
                            <path d="M150.672652,16.1164531 C151.344901,15.3075882 147.079594,0.555544381 150.672652,0.0207645307 C154.820427,-0.596577716 155.205497,12.756553 156.97193,12.756553 C157.803353,12.756553 156.222171,0.0207645307 160.786439,0.0207645307 C165.257202,0.0207645307 160.373434,12.756553 162.522928,12.756553 C163.012865,12.756553 166.42382,1.57864838 169.775389,3.44513928 C173.29545,5.40546304 166.896938,15.8952709 167.241139,16.1164531 C167.932629,16.5608016 173.010549,8.36457078 175.095335,10.9735609 C177.180121,13.582551 170.651268,19.6644295 167.932629,28.5812673 C166.120202,34.5258258 164.925013,36.7654586 164.347061,35.3001656 L155.205497,35.3001656 C152.451048,30.4252147 150.423756,27.1499017 149.123623,25.4742267 C144.052073,18.9377667 140.962099,15.8690365 142.182143,13.582551 C144.715938,8.83396444 150.000403,16.9253179 150.672652,16.1164531 Z" id="Rectangle" fill="#F3E6CB"></path>
                            <rect id="Rectangle" fill="#F3E6CB" x="154.91606" y="32.4861878" width="10.8332909" height="35.7348066"></rect>
                            <path d="M5.90015544,278.660079 C6.58712274,277.826703 2.22842977,262.627628 5.90015544,262.076642 C10.1387433,261.440593 10.5322445,275.198364 12.3373525,275.198364 C13.1869789,275.198364 9.44693756,262.076642 14.1111377,262.076642 C18.6797851,262.076642 15.8133296,275.198364 18.0098857,275.198364 C18.5105495,275.198364 18.3558256,262.798285 21.7807754,264.721336 C25.3779055,266.741063 22.4796627,278.432194 22.8313996,278.660079 C23.5380288,279.117893 25.3549575,268.929626 27.4853885,271.617676 C29.6158195,274.305726 26.3161914,282.31557 23.5380288,291.502615 C21.6859204,297.627312 20.4645631,299.934812 19.8739568,298.425116 L10.5322445,298.425116 C7.49398931,293.649779 5.4223116,290.275214 4.31721138,288.301422 C0.46581165,281.42253 -0.780944902,275.080641 0.46581165,272.724868 C3.05508303,267.832385 5.21318814,279.493455 5.90015544,278.660079 Z" id="Rectangle" fill="#F3E6CB" transform="translate(14.083278, 280.464088) scale(-1, -1) translate(-14.083278, -280.464088) "></path>
                            <polygon id="Rectangle" fill="#F3E6CB" points="74.7497072 113.701657 90.9996435 113.701657 97.3563491 138.79205 67.8893409 137.524862"></polygon>
                            <path d="M49.2963837,134.593868 C56.5855252,130.514713 63.1646508,127.932126 69.0337605,126.846107 C71.5186878,126.386297 71.5186878,136.064704 82.8660279,134.783295 C94.213368,133.501886 93.4439361,125.58707 96.7031364,125.58707 C107.767818,125.58707 115.931687,131.659113 127.999777,119.767867 C128.242638,119.528565 128.480689,119.353638 128.71393,119.243086 C131.249175,116.442041 132.246276,115.314699 134.190823,111.56161 C135.874291,108.31242 139.837822,100.425925 141.050097,96.4090153 C146.275676,79.0938974 149.156526,62.5994949 149.692646,46.9258078 C149.784541,44.2392296 151.984192,42.1061175 154.672325,42.0967635 L170.704066,42.0409769 C173.216943,42.0322297 175.345919,43.8899018 175.677696,46.3807955 C178.753346,69.4719203 179.617446,84.9870749 178.269995,92.9262593 C174.837999,113.147594 170.30698,115.811092 167.53223,122.967875 C163.133899,134.312285 148.229398,148.557972 137.350098,158.694686 C139.530294,175.509802 140.781538,189.614856 141.103832,201.009849 C141.369481,210.402122 139.807426,219.153298 136.417667,227.263378 C132.756535,236.022719 124.90631,242.330259 115.56403,244.018967 C76.0128173,251.168234 52.2022012,250.367103 44.1321812,241.615575 C40.6390193,237.827418 37.9601421,234.201883 35.9352798,230.456115 C34.7423252,233.090974 33.7963118,235.012316 33.0972396,236.220139 C29.4887754,242.45467 26.586256,247.450682 24.3896814,251.208177 C23.9026138,252.041345 23.1848366,252.715755 22.3229648,253.150014 C18.9543968,254.847284 16.3018714,255.695919 14.3653886,255.695919 C12.7140873,255.695919 10.4024298,255.078832 7.43041618,253.844658 C5.54699468,253.062544 4.32732143,251.214954 4.34823527,249.175704 C4.69629152,215.23771 11.1344272,186.225035 23.6626423,162.137678 C30.8906152,148.240825 39.4351957,139.059555 49.2963837,134.593868 Z" id="Combined-Shape" fill="#F77C68"></path>
                            <g id="Group-3" transform="translate(32.496239, 17.325967)">
                                <path d="M58.4997708,76.8839779 C52.8410248,76.1358469 49.0293114,75.5177932 47.0646304,75.0298167 C45.0999495,74.5418402 42.0505787,72.9941481 37.9165181,70.3867403" id="Line" stroke="#1D1F20" stroke-linecap="square"></path>
                                <path d="M50.9164672,100.707182 C77.7181057,101.774733 93.1663017,82.5264802 93.1663017,60.0994475 C93.1663017,37.6724149 74.2504065,19.4917127 50.9164672,19.4917127 C27.5825279,19.4917127 8.66663271,37.6724149 8.66663271,60.0994475 C8.66663271,82.5264802 24.1148287,99.639632 50.9164672,100.707182 Z" id="Oval" fill="#F3E6CB"></path>
                                <ellipse id="Oval" fill="#F3E6CB" cx="95.8746244" cy="66.0552486" rx="3.79165181" ry="4.33149171"></ellipse>
                                <ellipse id="Oval-Copy-2" fill="#F3E6CB" cx="3.79165181" cy="57.3922652" rx="3.79165181" ry="4.33149171"></ellipse>
                                <path d="M50.3896368,68.4784812 C51.4128388,68.3950857 52.1326524,68.1635061 52.5490776,67.7837425 C52.9655029,67.4039788 53.3290566,66.6475694 53.6397389,65.5145143" id="Line-4" stroke="#1D1F20" stroke-linecap="round" transform="translate(52.014688, 66.996498) rotate(6.000000) translate(-52.014688, -66.996498) "></path>
                                <path d="M37.9165181,70.3867403 C37.9165181,76.7439826 39.9571495,80.5777675 44.0384122,81.8880951 C48.1196749,83.1984226 52.9401278,81.3698673 58.4997708,76.4024289" id="Line-2" stroke="#1D1F20" stroke-linecap="square"></path>
                                <path d="M64.85989,62.6369515 C66.5038443,62.6368561 67.026641,60.7349669 67.0267772,58.3889052 C67.0269134,56.0428434 66.0569326,55.0567791 64.8603301,55.0567791 C63.6637276,55.0567791 62.6936324,56.0430949 62.6934961,58.3891566 C62.69336,60.7352184 63.2159358,62.6370469 64.85989,62.6369515 Z" id="Oval" fill="#1D1F20" transform="translate(64.860137, 58.846865) rotate(8.000000) translate(-64.860137, -58.846865) "></path>
                                <path d="M30.8396044,60.9054476 C32.4835586,60.9053522 33.0063553,59.003463 33.0064915,56.6574013 C33.0066277,54.3113395 32.036647,53.3252753 30.8400444,53.3252753 C29.6434419,53.3252753 28.6733467,54.311591 28.6732105,56.6576528 C28.6730743,59.0037145 29.1956501,60.905543 30.8396044,60.9054476 Z" id="Oval-Copy" fill="#1D1F20" transform="translate(30.839851, 57.115361) rotate(8.000000) translate(-30.839851, -57.115361) "></path>
                                <path d="M67.1664035,48.7499335 C68.9436179,48.7365499 70.6744316,49.3168861 72.0843601,50.3989082 L72.7577384,50.9156793" id="Line-3" stroke="#1D1F20" stroke-linecap="round"></path>
                                <path d="M25.9998981,48.7499335 C27.7771126,48.7365499 29.5079263,49.3168861 30.9178547,50.3989082 L31.591233,50.9156793" id="Line-3-Copy" stroke="#1D1F20" stroke-linecap="round" transform="translate(28.795566, 49.822481) scale(-1, 1) translate(-28.795566, -49.822481) "></path>
                                <path d="M30.9313894,8.43668498 C30.9313894,2.81222833 35.3005162,-1.42108547e-14 44.0387698,-1.42108547e-14 C46.9647779,-1.42108547e-14 51.3364437,-1.42108547e-14 57.8053629,6.64619201 C57.8053629,6.64619201 80.0553702,-1.42108547e-14 82.6206132,17.4459909 C82.6206132,17.4459909 86.6597071,16.2769985 89.3222576,19.393323 C90.0792134,20.2792855 90.5541414,22.8006421 90.7470416,26.9573927 C94.4184561,28.0359691 96.7593982,30.3327684 97.769868,33.8477907 C98.0271825,34.7428854 100.344588,39.2961103 95.5226478,45.0160037 C95.5226478,45.0160037 102.194807,46.5454489 100.344588,54.0495197 C98.6846327,60.7819279 92.0810323,76.6211734 89.3222576,76.1933178 C86.563483,75.7654623 85.3459205,67.2187481 89.3222576,52.3400779 C90.3443613,48.5155674 83.2909795,53.5738211 76.1474817,33.8477907 C75.7469291,32.7417063 70.3045013,36.146407 62.6009771,36.2656404 C58.1844664,36.3339982 52.5385505,31.4642885 47.9087484,33.8477907 C43.6354035,36.0477824 31.4367297,42.1801993 22.7965365,45.0160037 C19.1156792,46.2241007 14.5869167,43.0686716 14.5869167,43.0686716 C14.5869167,57.8662907 12.1632595,66.4130398 9.78709022,67.2187481 C7.41092093,68.0244565 4.33331636,62.3289381 4.33331636,46.5454489 C4.33331636,41.1476547 7.93160662,39.2961103 7.93160662,39.2961103 C4.33331636,32.308872 6.98596288,26.7689751 11.7720996,22.7122086 C11.7720996,22.7122086 9.29656858,10.9378513 17.0142094,6.64619201 C21.9635697,3.89393015 26.6026297,4.49076114 30.9313894,8.43668498 Z" id="Rectangle" fill="#387DCB"></path>
                            </g>
                        </g>
                    </g>
                    <g id="Group-7" transform="translate(302.000000, 106.000000)">
                        <path d="M58.817942,7.54429212 C75.355635,-6.13987335 91.0404725,2.97265021 93.2895568,2.97265021 C95.5386412,2.97265021 114.162159,-6.51107281 124.392458,14.9201072 C131.212657,29.2075605 127.798875,47.6081461 114.151112,70.1218638 C104.068804,63.7496981 94.7773837,60.9140887 86.2768509,61.6150356 C77.7763181,62.3159826 67.9267646,64.5495665 56.7281904,68.3157874 C47.0962295,36.9242342 47.7928134,16.6670691 58.817942,7.54429212 Z" id="Rectangle" fill="#7893D7"></path>
                        <g id="Group-6" transform="translate(68.207159, 219.691756) scale(-1, 1) translate(-68.207159, -219.691756) translate(30.707159, 153.691756)">
                            <path d="M13.5190321,74.3214889 L20.5710847,74.3214889 L20.5710847,129.843919 L13.5190321,129.843919 L13.5190321,92.707621 C12.34369,90.154382 11.7560189,88.2308626 11.7560189,86.9370628 C11.7560189,85.6432631 12.34369,83.724123 13.5190321,81.1796426 L13.5190321,74.3214889 Z" id="Rectangle" fill="#F3AE8C"></path>
                            <path d="M49.6608016,74.3214889 L56.7128542,74.3214889 L56.7128542,81.1763746 C59.3371758,83.5905991 60.6493366,85.7334199 60.6493366,87.604837 C60.6493366,89.476254 59.3371758,91.3798981 56.7128542,93.3157694 L56.7128542,121.910745 L65.7092837,122.843783 L56.7128542,128.966595 L49.6608016,128.966595 L49.6608016,74.3214889 Z" id="Rectangle-Copy-2" fill="#F3AE8C"></path>
                            <path d="M34.3921855,5.35881122 L51.7190701,2.81974823 C55.5136696,16.2738185 58.1306065,29.7234224 59.5698808,43.1685599 C61.0091552,56.6136974 61.0091552,67.9833475 59.5698808,77.2775103 L47.5240441,77.2775103 C45.8752326,68.4827028 43.8714172,57.7389544 41.5125982,45.0462651 C39.7339696,35.4755521 36.9609998,25.7443136 33.1936888,15.8525497 C32.7725343,19.9795754 32.2823792,25.0849119 31.7232235,31.1685591 C30.0560038,49.308009 27.2678875,65.0485517 23.3588745,78.3901871 L11.1370897,78.3901871 C10.7869866,65.4833682 10.7869866,49.7428256 11.1370897,31.1685591 C11.4871928,12.5942927 12.2177115,2.20477301 13.3286458,3.6008696e-13 L34.8845594,2.84286449 C34.7653753,3.04433328 34.6012507,3.88298219 34.3921855,5.35881122 Z" id="Combined-Shape" fill="#7893D7"></path>
                            <path d="M-5.5067062e-14,128.566373 L4.57335646,128.566373 C3.83212234,125.49907 4.65835438,123.409852 7.05205259,122.298719 C10.6425999,120.632019 15.5680515,120.632019 18.5370012,123.702652 C20.516301,125.749741 21.0955177,128.381712 20.2746512,131.598566 L-5.5067062e-14,131.598566 L-5.5067062e-14,128.566373 Z" id="Rectangle" fill="#F0EE64" transform="translate(10.317803, 126.391578) scale(-1, 1) translate(-10.317803, -126.391578) "></path>
                            <path d="M49.6608016,128.452465 L56.8939923,128.452465 C56.0074044,125.385162 56.995658,123.295944 59.8587531,122.184811 C64.1533956,120.518111 68.2816999,120.518111 71.8328514,123.588744 C74.2002857,125.635833 74.893085,128.267804 73.9112492,131.484658 L49.6608016,131.484658 L49.6608016,128.452465 Z" id="Rectangle-Copy-3" fill="#F0EE64"></path>
                        </g>
                        <polygon id="Rectangle" fill="#F3AE8C" points="79.5979766 66.2795699 92.8415598 66.2795699 98.02223 86.4516129 74.0068265 85.4328257"></polygon>
                        <g id="Group-3" transform="translate(85.498250, 37.342294) scale(-1, 1) translate(-85.498250, -37.342294) translate(47.998250, 3.842294)">
                            <path d="M43.5628249,46.8375627 C39.0118355,46.2270165 35.9463034,45.7226257 34.3662285,45.3243903 C32.7861537,44.926155 30.333728,43.6630906 27.0089514,41.5351971" id="Line" stroke="#1D1F20" stroke-linecap="square"></path>
                            <ellipse id="Oval" fill="#F3AE8C" cx="37.4640294" cy="33.1397849" rx="33.9790034" ry="33.1397849"></ellipse>
                            <ellipse id="Oval" fill="#F3AE8C" cx="71.8786611" cy="38.0002867" rx="3.04939774" ry="3.53491039"></ellipse>
                            <ellipse id="Oval-Copy-2" fill="#F3AE8C" cx="3.04939774" cy="37.1165591" rx="3.04939774" ry="3.53491039"></ellipse>
                            <path d="M37.0419473,39.9756809 C37.864877,39.9088941 38.4435876,39.7208202 38.7780794,39.4114592 C39.1125711,39.1020983 39.4040704,38.4853421 39.6525772,37.5611907" id="Line-4" stroke="#1D1F20" stroke-linecap="round" transform="translate(38.347262, 38.768436) rotate(6.000000) translate(-38.347262, -38.768436) "></path>
                            <path d="M22.626049,45.1149493 C22.6068977,48.8799954 24.240092,51.1420869 27.5256319,51.9012237 C30.8111719,52.6603606 34.7019531,51.5574486 39.1979756,48.5924877" id="Line-2" stroke="#1D1F20" stroke-linecap="square" transform="translate(30.911929, 48.624146) scale(-1, 1) rotate(-23.000000) translate(-30.911929, -48.624146) "></path>
                            <path d="M48.6840865,35.2096595 C50.0065975,35.2122644 50.424064,33.6614324 50.4203649,31.7473611 C50.4166166,29.8332899 49.6346854,29.0271523 48.6720552,29.0252505 C47.7094251,29.0233554 46.9306244,29.8264149 46.9343348,31.7404861 C46.9380717,33.6545574 47.3615755,35.2070479 48.6840865,35.2096595 Z" id="Oval" fill="#1D1F20" transform="translate(48.677350, 32.117455) rotate(8.000000) translate(-48.677350, -32.117455) "></path>
                            <path d="M21.3236147,33.7965871 C22.6461257,33.7991921 23.0635922,32.2483601 23.0598932,30.3342888 C23.0561449,28.4202176 22.2742136,27.61408 21.3115835,27.6121782 C20.3489533,27.6102831 19.5701526,28.4133426 19.573863,30.3274138 C19.5776,32.2414851 20.0011037,33.7939756 21.3236147,33.7965871 Z" id="Oval-Copy" fill="#1D1F20" transform="translate(21.316878, 30.704383) rotate(8.000000) translate(-21.316878, -30.704383) "></path>
                            <path d="M50.5328769,23.8774989 C51.9612705,23.8665836 53.3515325,24.3381299 54.4785434,25.2157823 L55.0296515,25.6449541" id="Line-3" stroke="#1D1F20" stroke-linecap="round"></path>
                            <path d="M17.42513,23.8774989 C18.8535235,23.8665836 20.2437856,24.3381299 21.3707965,25.2157823 L21.9219046,25.6449541" id="Line-3-Copy" stroke="#1D1F20" stroke-linecap="round" transform="translate(19.673517, 24.752800) scale(-1, 1) translate(-19.673517, -24.752800) "></path>
                        </g>
                        <path d="M70.7286322,4.21753613 L111.921578,2.88172043 C119.7698,18.6726719 121.232258,27.2369962 116.30895,28.5746934 C108.923989,30.5812391 94.9662723,19.4767503 94.9662723,19.4767503 C94.9662723,19.4767503 65.93309,29.4525879 56.5170568,25.9062945 C50.2397013,23.5420988 54.9768931,16.3125127 70.7286322,4.21753613 Z" id="Rectangle" fill="#7893D7"></path>
                        <g id="Group-5" transform="translate(70.500000, 128.713262) scale(-1, 1) translate(-70.500000, -128.713262) translate(0.000000, 55.713262)">
                            <path d="M6.04076075,65.0512002 L21.0065563,65.7150807 C14.688117,83.0074269 11.8710492,93.8437838 12.5553532,98.2241516 C13.2396571,102.604519 14.1183981,111.400732 15.1915761,124.612789 L8.0704874,124.612789 C4.39580509,112.737115 2.55846394,102.810184 2.55846394,94.8319946 C2.55846394,87.7961903 0.00488695422,87.7961903 0.9015227,82.9836066 C1.79815845,78.1710229 2.80250861,78.9571829 3.22786329,76.8890609 C3.73068512,74.4442851 4.66831761,70.4983315 6.04076075,65.0512002 Z" id="Rectangle" fill="#F3AE8C"></path>
                            <path d="M116.53503,50.9436047 C120.446579,67.5443026 117.901597,76.5133368 108.900084,77.8507074 L104.773824,68.8188781 C104.78805,56.8519882 104.597981,46.9241284 104.203618,39.0352986 C103.96541,34.2702083 107.768266,39.9512474 109.538489,34.6378805 C109.682767,34.2048271 109.813543,33.6987414 109.927528,33.1080155 C110.252138,31.4257365 110.667706,26.0425579 116.53503,50.9436047 Z" id="Rectangle" fill="#F3AE8C" transform="translate(111.252625, 54.644135) scale(1, -1) rotate(-134.000000) translate(-111.252625, -54.644135) "></path>
                            <path d="M126.9471,19.2224996 L136.544766,27.0509055 C130.778519,38.127994 127.002596,46.5284868 125.216998,52.252384 C123.4314,57.9762813 122.714489,63.9779759 123.066265,70.2574678 L114.728698,70.270751 C118.245766,42.1258744 120.128009,27.4367928 120.375426,26.2035063 C121.49775,20.609129 123.688308,18.2821267 126.9471,19.2224996 Z" id="Rectangle" fill="#F3AE8C" transform="translate(125.636732, 44.645133) rotate(-183.000000) translate(-125.636732, -44.645133) "></path>
                            <path d="M7.89227256,132.981389 C8.29822641,132.483941 5.72251689,123.411496 7.89227256,123.082608 C10.3970076,122.702945 10.6295417,130.915065 11.6962454,130.915065 C12.1983204,130.915065 9.98819455,123.082608 12.7444393,123.082608 C15.4442185,123.082608 13.7503261,130.915065 15.0483507,130.915065 C15.3442111,130.915065 15.2527791,123.513362 17.276706,124.661246 C19.4023804,125.866837 17.6897038,132.845363 17.8975579,132.981389 C18.3151307,133.254662 19.3888196,127.173207 20.6477685,128.777725 C21.9067173,130.382243 19.9568475,135.16338 18.3151307,140.647198 C17.2206527,144.303077 16.4989085,145.680442 16.1498978,144.779293 L10.6295417,144.779293 C8.8341267,141.928857 7.60989733,139.914553 6.95685359,138.736381 C4.68092202,134.630318 3.94416842,130.844795 4.68092202,129.438616 C6.21101624,126.518256 7.4863187,133.478838 7.89227256,132.981389 Z" id="Rectangle" fill="#F3AE8C" transform="translate(12.727976, 134.058217) scale(-1, -1) translate(-12.727976, -134.058217) "></path>
                            <path d="M125.104853,9.91155131 C125.508179,9.41410282 122.949141,0.341657474 125.104853,0.0127700996 C127.593376,-0.366892803 127.824405,7.84522683 128.884204,7.84522683 C129.38303,7.84522683 128.434375,0.0127700996 131.172779,0.0127700996 C133.855084,0.0127700996 130.92499,7.84522683 132.214613,7.84522683 C132.508558,7.84522683 134.555015,0.970862158 136.565842,2.11874627 C138.677758,3.32433719 134.83887,9.77552518 135.045379,9.91155131 C135.460249,10.1848238 138.506827,5.14417609 139.757627,6.74869411 C141.008427,8.35321213 137.091339,12.093542 135.460249,17.57736 C134.372855,21.2332387 133.655782,22.6106035 133.30903,21.7094544 L127.824405,21.7094544 C126.171829,18.71138 124.955524,16.6970762 124.175488,15.666543 C121.132732,11.6466474 119.278853,9.75939114 120.010838,8.35321213 C121.531028,5.43285123 124.701527,10.4089998 125.104853,9.91155131 Z" id="Rectangle" fill="#F3AE8C"></path>
                            <path d="M29.1810398,27.026065 C34.7294998,23.9929493 39.7592563,22.057406 44.2703094,21.2194351 C46.2797447,20.8461635 46.2797447,28.7030409 55.4557662,27.6628001 C64.6317878,26.6225592 64.009587,20.1973556 66.6451379,20.1973556 C72.1024089,20.1973556 76.8674834,19.607245 81.7118052,21.3067425 C85.1816179,21.9346384 88.9477684,23.4016099 93.0102566,25.707657 C96.1839253,27.509171 103.956343,33.7378782 104.795608,36.4409782 C110.833892,55.8890379 92.8307526,55.6795824 88.2908227,50.138949 C88.2648769,50.1072841 88.2388026,50.0755819 88.2125998,50.0438424 C89.6600528,55.1439944 91.7389169,61.2876171 94.4491921,68.4747105 C112.654732,116.752065 78.6128417,101.60559 67.6739243,107.596141 C56.7350068,113.586692 43.3479035,117.031273 37.3598694,108.344942 C31.436477,99.7523806 35.3644589,75.6150291 28.1922322,55.4770714 C21.9420469,69.4513567 18.6217467,77.3311077 18.2313316,79.1163245 C17.6994418,81.5484507 12.9784613,81.0793569 4.0683903,77.7090433 C1.66875419,76.8013647 0.34550669,74.2247808 1.00577754,71.7456326 C2.32410652,66.7956442 6.16787778,58.1739573 12.5370913,45.8805718 C18.528155,34.3170631 24.0761379,28.0322275 29.1810398,27.026065 Z" id="Combined-Shape" fill="#F0EE64"></path>
                        </g>
                        <ellipse id="Oval" fill="#1D1F20" cx="68.7234378" cy="45.1469534" rx="1" ry="1"></ellipse>
                        <ellipse id="Oval-Copy-3" fill="#1D1F20" cx="65.8415894" cy="44.1863799" rx="1" ry="1"></ellipse>
                        <ellipse id="Oval-Copy-4" fill="#1D1F20" cx="67.7628216" cy="41.3046595" rx="1" ry="1"></ellipse>
                        <ellipse id="Oval" fill="#1D1F20" cx="108.108699" cy="45.1469534" rx="1" ry="1"></ellipse>
                        <ellipse id="Oval-Copy-3" fill="#1D1F20" cx="105.226851" cy="44.1863799" rx="1" ry="1"></ellipse>
                        <ellipse id="Oval-Copy-4" fill="#1D1F20" cx="107.148083" cy="41.3046595" rx="1" ry="1"></ellipse>
                    </g>
                    <g id="Group-7-Copy" transform="translate(0.000000, 143.000000)">
                        <g id="Group-6" transform="translate(57.106509, 200.688837) scale(-1, 1) translate(-57.106509, -200.688837) translate(24.106509, 154.688837)">
                            <path d="M4.34556213,43.9935453 L13.0366864,43.9935453 L13.0366864,91.6299121 L4.34556213,91.6299121 L4.34556213,59.7682248 C2.89704142,57.5776321 2.17278107,55.9273175 2.17278107,54.8172811 C2.17278107,53.7072446 2.89704142,52.0606873 4.34556213,49.8776092 L4.34556213,43.9935453 Z" id="Rectangle" fill="#F3E6CB"></path>
                            <path d="M44.5420118,43.9935453 L53.6123015,43.9935453 L53.6123015,49.8748054 C56.9876814,51.9461284 58.6753714,53.7845962 58.6753714,55.3902087 C58.6753714,56.9958212 56.9876814,58.6290835 53.6123015,60.2899955 L53.6123015,84.823517 L65.183432,85.6240322 L53.6123015,90.877198 L44.5420118,90.877198 L44.5420118,43.9935453 Z" id="Rectangle-Copy-2" fill="#F3E6CB"></path>
                            <path d="M28.7447552,4.59767877 L49.9227456,2.4192486 C54.5607399,13.9623858 57.7593221,25.501691 59.5184922,37.0371642 C61.2776624,48.5726374 61.2776624,58.3274127 59.5184922,66.30149 L44.7953253,66.30149 C42.7800458,58.7558426 40.3308587,49.5380699 37.4477641,38.6481718 C35.2738142,30.4368237 31.884519,22.0877503 27.2798784,13.6009515 C26.7651173,17.1417999 26.1660194,21.5220059 25.4825847,26.7415695 C23.4448056,42.3046039 20.0369973,55.8094571 15.2591599,67.256129 L0.320938258,67.256129 C-0.106979419,56.182515 -0.106979419,42.6776618 0.320938258,26.7415695 C0.748855935,10.8054772 1.64174107,1.89162066 2.99959368,-1.35351175e-11 L29.346565,2.43908157 C29.2008908,2.61193498 29.0002876,3.33146738 28.7447552,4.59767877 Z" id="Combined-Shape" fill="#387DCB"></path>
                        </g>
                        <polygon id="Rectangle" fill="#F3E6CB" points="61.4659955 79.6248505 73.0956446 79.6248505 77.6449704 101.759103 56.556213 100.641215"></polygon>
                        <g id="Group-3" transform="translate(67.692308, 56.157475) scale(-1, 1) translate(-67.692308, -56.157475) translate(35.692308, 27.657475)">
                            <path d="M36.7827164,40.1239464 C32.940042,39.6009148 30.3516286,39.1688225 29.0174763,38.8276696 C27.6833239,38.4865166 25.6125932,37.4044977 22.8052842,35.5816128" id="Line" stroke="#1D1F20" stroke-linecap="square"></path>
                            <ellipse id="Oval" fill="#F3E6CB" cx="31.6331361" cy="28.3895847" rx="28.6905188" ry="28.3895847"></ellipse>
                            <ellipse id="Oval" fill="#F3E6CB" cx="60.691482" cy="32.5533905" rx="2.57479015" ry="3.02822237"></ellipse>
                            <ellipse id="Oval-Copy-2" fill="#F3E6CB" cx="2.57479015" cy="31.7963349" rx="2.57479015" ry="3.02822237"></ellipse>
                            <path d="M31.2781152,34.2438035 C31.9729894,34.1876511 32.461467,34.0273008 32.7435478,33.7627524 C33.0256287,33.4982041 33.2710095,32.9703083 33.4796904,32.1790652" id="Line-4" stroke="#1D1F20" stroke-linecap="round" transform="translate(32.378903, 33.211434) rotate(6.000000) translate(-32.378903, -33.211434) "></path>
                            <path d="M22.1897376,38.5906142 C22.1512429,43.123045 23.5199257,45.8383986 26.2957859,46.7366751 C29.0716461,47.6349515 32.3707084,46.2888369 36.1929727,42.698331" id="Line-2" stroke="#1D1F20" stroke-linecap="square" transform="translate(29.190960, 42.798464) scale(-1, 1) rotate(-23.000000) translate(-29.190960, -42.798464) "></path>
                            <path d="M41.1121559,30.161964 C42.229151,30.1664286 42.5791134,28.8389675 42.5727233,27.1997057 C42.5663332,25.5604439 41.9045486,24.8687232 41.0915094,24.8654537 C40.2784702,24.8622073 39.6220578,25.548646 39.6284479,27.1879077 C39.634838,28.8271695 39.9951607,30.1574768 41.1121559,30.161964 Z" id="Oval" fill="#1D1F20" transform="translate(41.100605, 27.513709) rotate(8.000000) translate(-41.100605, -27.513709) "></path>
                            <path d="M18.0100619,28.9514391 C19.1270571,28.9559037 19.4770194,27.6284425 19.4706294,25.9891808 C19.4642393,24.349919 18.8024547,23.6581982 17.9894155,23.6549288 C17.1763763,23.6516824 16.5199639,24.338121 16.526354,25.9773828 C16.532744,27.6166446 16.8930667,28.9469519 18.0100619,28.9514391 Z" id="Oval-Copy" fill="#1D1F20" transform="translate(17.998511, 26.303184) rotate(8.000000) translate(-17.998511, -26.303184) "></path>
                            <path d="M42.667951,20.454939 C43.8732559,20.4455942 45.0456748,20.8477766 45.9914432,21.5950177 L46.4648487,21.9690501" id="Line-3" stroke="#1D1F20" stroke-linecap="round"></path>
                            <path d="M14.7130866,20.454939 C15.9183914,20.4455942 17.0908104,20.8477766 18.0365788,21.5950177 L18.5099842,21.9690501" id="Line-3-Copy" stroke="#1D1F20" stroke-linecap="round" transform="translate(16.611535, 21.204776) scale(-1, 1) translate(-16.611535, -21.204776) "></path>
                        </g>
                        <g id="Group-5" transform="translate(81.000000, 86.000000) scale(-1, 1) translate(-81.000000, -86.000000) ">
                            <g id="Group-13" transform="translate(41.769602, 45.660810) scale(1, -1) rotate(35.000000) translate(-41.769602, -45.660810) translate(17.769602, 7.660810)" fill="#F3E6CB">
                                <g id="Group-14" transform="translate(24.080893, 37.721555) rotate(-10.000000) translate(-24.080893, -37.721555) translate(6.080893, 2.721555)">
                                    <path d="M11.7626257,1.45260643 L24.519659,2.00621227 C19.1175876,16.7906728 16.7062071,26.0543964 17.2855176,29.7973831 C17.8648281,33.5403697 18.6058279,41.0571137 19.5085168,52.3476148 L13.4381204,52.3541668 C10.3165418,42.2081797 8.75941947,33.7259656 8.76675352,26.9075244 C8.77322127,20.8944787 6.59641584,20.8968282 7.36518008,16.783 C8.13394431,12.6691717 8.98938335,13.3401276 9.35387955,11.5722466 C9.78475913,9.48239254 10.5876745,6.10917917 11.7626257,1.45260643 Z" id="Rectangle" transform="translate(15.860206, 26.903387) rotate(-16.000000) translate(-15.860206, -26.903387) "></path>
                                    <path d="M21.8972922,57.9669039 C22.2438063,57.5413934 20.0564738,49.7901325 21.9063918,49.5070574 C24.0419108,49.1802796 24.2325862,56.1984318 25.1419013,56.1974504 C25.5698969,56.1969884 23.6930677,49.505129 26.0426379,49.502593 C28.3440739,49.500109 26.8929095,56.1955604 27.999415,56.1943662 C28.2516222,56.1940939 28.1804848,49.8684225 29.904733,50.8475824 C31.7156631,51.875967 30.249271,57.8416367 30.4263319,57.9576982 C30.782042,58.1908623 31.7029023,52.992449 32.7746226,54.3625681 C33.8463428,55.7326873 32.1797746,59.8206095 30.7752463,64.5087836 C29.8388942,67.6342331 29.2223746,68.8120415 28.9256877,68.042209 L24.2198413,68.0472882 C22.6919539,65.6128577 21.6502071,63.8924893 21.0946008,62.8861828 C19.1582497,59.3790905 18.5336814,56.1445281 19.1630222,54.9420802 C20.4700408,52.4448293 21.5507782,58.3924144 21.8972922,57.9669039 Z" id="Rectangle" transform="translate(26.021693, 58.883207) scale(-1, -1) rotate(-16.000000) translate(-26.021693, -58.883207) "></path>
                                </g>
                            </g>
                            <path d="M138.417745,109.525995 C141.778392,123.685632 139.614026,131.330579 131.924645,132.460835 L128.389041,124.754854 C128.387769,114.550825 128.214236,106.085227 127.868442,99.3580592 C127.659572,95.2946479 130.9151,100.143081 132.421616,95.6144149 C132.544401,95.2453166 132.655568,94.8139293 132.752294,94.3103514 C133.027752,92.8762536 133.376773,88.2865387 138.417745,109.525995 Z" id="Rectangle" fill="#F3E6CB" transform="translate(133.904853, 112.673755) scale(1, -1) rotate(-120.000000) translate(-133.904853, -112.673755) "></path>
                            <path d="M152.046446,78.6181639 L159.077786,86.1854165 C154.162239,95.6559399 150.943219,102.837983 149.420727,107.731546 C147.898236,112.625109 147.286436,117.756007 147.58533,123.124241 L140.480078,123.136777 C142.577899,107.218976 144.060321,97.0214584 144.927346,92.5442239 C145.206458,91.1029146 146.272951,87.1124739 146.589485,85.5309324 C147.546718,80.7481888 149.365705,78.4439326 152.046446,78.6181639 Z" id="Rectangle" fill="#F3E6CB" transform="translate(149.778932, 100.872877) rotate(-183.000000) translate(-149.778932, -100.872877) "></path>
                            <path d="M149.306511,70.8244617 C149.650221,70.3991936 147.469436,62.6431714 149.306511,62.362006 C151.427204,62.0374327 151.624085,69.0579635 152.527235,69.0579635 C152.952328,69.0579635 152.143894,62.362006 154.477535,62.362006 C156.763367,62.362006 154.266371,69.0579635 155.365374,69.0579635 C155.615871,69.0579635 157.35984,63.1810777 159.073446,64.1624024 C160.873199,65.1930606 157.601739,70.7081732 157.777723,70.8244617 C158.131271,71.0580821 160.727534,66.7488386 161.793452,68.1205391 C162.859371,69.4922395 159.52127,72.6898429 158.131271,77.3779521 C157.204605,80.5033582 156.593523,81.6808656 156.298025,80.9104744 L151.624085,80.9104744 C150.215777,78.3474243 149.179254,76.6253985 148.514516,75.744397 C145.921511,72.3077932 144.341654,70.6943802 144.965444,69.4922395 C146.260935,66.9956266 148.9628,71.2497298 149.306511,70.8244617 Z" id="Rectangle" fill="#F3E6CB"></path>
                            <path d="M67.0222731,91.5228634 C71.8357694,91.4580146 76.9948106,90.5871151 82.4993966,88.9101649 C84.1712862,88.4008304 85.7949335,100.363334 93.6146435,99.4740337 C101.434354,98.5847331 99.3210035,88.0363904 101.566992,88.0363904 C106.217622,88.0363904 110.278369,87.5319056 114.406649,88.9848039 C117.363588,89.5215913 120.573062,90.7757034 124.035072,92.7471402 C126.73964,94.2872523 133.363213,99.6121663 134.078426,101.923043 C139.224189,118.549165 123.882101,118.370102 120.01322,113.633421 C119.991109,113.606351 119.968889,113.579249 119.946559,113.552115 C121.180063,117.912228 122.95165,123.164404 125.261318,129.308641 C140.77589,170.580891 111.765745,157.632189 102.443714,162.753503 C93.121682,167.874818 81.7133319,170.819586 76.6103916,163.393652 C71.5074514,155.967718 71.7503841,135.393963 65.3607223,118.067623 C65.2343216,117.724872 65.1140364,117.398472 64.99913,117.087119 C61.4501877,114.173013 54.9965228,107.232545 45.6381353,96.265715 C38.2162528,87.5682202 35.8106862,81.646093 38.4214355,78.4993335 C42.4717125,70.7665387 45.3592165,67.4000186 47.0839477,68.399773 C49.6710444,69.8994046 57.0731762,89.3652514 66.9928084,91.5164139 C67.0026441,91.5185469 67.0124657,91.5206967 67.0222731,91.5228634 Z" id="Combined-Shape" fill="#9EDAE3" transform="translate(86.262540, 118.050056) rotate(5.000000) translate(-86.262540, -118.050056) "></path>
                        </g>
                        <path d="M47.5786983,27.8824605 C58.0328376,24.6038712 69.9549985,26.1925696 81.7634963,30.0487125 C89.6358282,32.6194745 92.7300185,37.5880955 91.0460672,44.9545757 L38.2834821,44.9963622 C37.5108667,35.7728206 40.6092721,30.0681867 47.5786983,27.8824605 Z" id="Rectangle" fill="#7893D7" transform="translate(64.829499, 35.553344) rotate(-9.000000) translate(-64.829499, -35.553344) "></path>
                        <path d="M47.6740013,34.9478688 C60.8662243,32.9367369 64.5008011,34.220723 77.1809677,37.5151585 C85.634412,39.7114488 94.3514812,45.2238994 103.332175,54.0525103 C88.416322,49.3522347 77.0998846,46.3909689 69.382863,45.1687127 C61.6658413,43.9464565 54.2902333,43.9471933 47.256039,45.1709229 C38.7398651,39.6963081 38.8791859,36.2886233 47.6740013,34.9478688 Z" id="Rectangle" fill="#7893D7" transform="translate(72.151946, 44.019780) scale(-1, 1) rotate(-9.000000) translate(-72.151946, -44.019780) "></path>
                        <path d="M20.1301775,231.583346 L24.0307037,231.583346 C26.5688768,229.283326 28.2929031,228.403907 29.2027829,228.945088 C30.1126626,229.486269 30.1126626,231.39111 29.2027829,234.659611 C35.4484492,234.134159 39.9005982,234.710502 42.5592299,236.388638 C45.2178616,238.066775 46.3410606,241.308203 45.9288268,246.112924 L20.1301775,246.112924 L20.1301775,231.583346 Z" id="Rectangle" fill="#F77C68" transform="translate(33.071006, 237.451694) scale(-1, 1) translate(-33.071006, -237.451694) "></path>
                        <path d="M57.5147929,236.958873 L60.9135953,236.958873 C61.1252262,234.422018 61.6527809,232.82558 62.4962594,232.169558 C63.3397379,231.513536 64.8648002,231.513536 67.0714463,232.169558 L67.0714463,236.256656 C74.6469247,235.67202 79.8349023,236.313278 82.6353792,238.18043 C85.4358561,240.047582 86.6189807,243.654105 86.1847531,249 L57.5147929,249 L57.5147929,236.958873 Z" id="Rectangle" fill="#F77C68" transform="translate(71.893491, 240.338771) scale(-1, 1) translate(-71.893491, -240.338771) "></path>
                    </g>
                    <g id="Group-12" transform="translate(602.000000, 125.000000)">
                        <path d="M50.7590703,206.992913 L80.6140598,203.346782 L50.7590703,206.992913 L70.9107358,174.587217 L50.7590703,206.992913 L48.9674955,207.211714 L17.4240417,185.307917 L48.9674955,207.211714 L16.6841701,211.154413 L48.9674955,207.211714 L50.1237269,208.014602 L28.8203728,242.272318 L50.1237269,208.014602 L48.9674955,207.211714 L50.7590703,206.992913 L50.1237269,208.014602 L76.1065385,226.057086 L50.1237269,208.014602 L50.7590703,206.992913 Z" id="Combined-Shape" stroke="#387DCB" stroke-width="4" stroke-linecap="square" transform="translate(48.619957, 208.516284) scale(-1, 1) rotate(-4.000000) translate(-48.619957, -208.516284) "></path>
                        <g id="Group-10" transform="translate(9.570082, 74.924731)">
                            <ellipse id="Oval" stroke="#387DCB" stroke-width="6" cx="39.9734948" cy="133.902921" rx="39.9734948" ry="50.353466"></ellipse>
                            <ellipse id="Oval" stroke="#387DCB" stroke-width="6" cx="39.9734948" cy="133.902921" rx="33.3112456" ry="42.147716"></ellipse>
                            <path d="M53.6702106,0.419559634 L137.028783,8.4020948 C139.080833,8.59860201 140.647482,10.3224422 140.647482,12.3838795 L140.647482,101.3834 C140.647482,102.993156 139.682513,104.446062 138.198741,105.07035 L78.5078334,130.184897 C77.6728502,130.536211 76.7433446,130.593696 75.871436,130.347945 L17.396573,113.86655 C15.2702785,113.267245 14.0324093,111.057709 14.6317146,108.931415 C14.9834189,107.683592 15.9180705,106.683611 17.1393247,106.24853 L46.6312959,95.7417926 C48.2247994,95.1740949 49.2889092,93.6653764 49.2889092,91.9737695 L49.2889092,4.40134432 C49.2889092,2.19220532 51.0797702,0.401344319 53.2889092,0.401344319 C53.4162271,0.401344319 53.5434724,0.407423011 53.6702106,0.419559634 Z" id="Rectangle" fill="#387DCB"></path>
                            <ellipse id="Oval" stroke="#387DCB" stroke-width="6" cx="129.543733" cy="149.568444" rx="43.6747443" ry="60.7971479"></ellipse>
                            <ellipse id="Oval" stroke="#387DCB" stroke-width="6" cx="129.543733" cy="149.568444" rx="36.2722453" ry="50.353466"></ellipse>
                            <path d="M70.3083189,113.406307 L138.442154,83.5494547" id="Line-6-Copy" stroke="#387DCB" stroke-width="5" stroke-linecap="round"></path>
                            <path d="M0.724157514,95.509957 L66.6224913,75.3188388" id="Line-6-Copy-2" stroke="#387DCB" stroke-width="5" stroke-linecap="round"></path>
                        </g>
                        <g id="Group-4" transform="translate(104.313890, 185.390681)" stroke="#387DCB" stroke-linecap="square" stroke-width="4">
                            <path d="M37.3239236,40.4998369 L38.4659283,40.3650725 L38.9666832,42.2552282 L66.5171577,61.1733635 L38.9666832,42.2552282 L38.4659283,40.3650725 L37.3239236,40.4998369 L37.0455148,40.9360159 L38.9666832,42.2552282 L50.1665715,84.5304659 L38.9666832,42.2552282 L37.0455148,40.9360159 L37.3239236,40.4998369 L36.5442902,40.5918391 L1.1148127,16.2634141 L36.5442902,40.5918391 L0.371604233,44.8604666 L36.5442902,40.5918391 L37.0455148,40.9360159 L13.4286389,77.9362202 L37.0455148,40.9360159 L36.5442902,40.5918391 L37.3239236,40.4998369 L38.1561914,39.1959355 L38.4659283,40.3650725 L69.4899916,36.7040181 L38.4659283,40.3650725 L38.1561914,39.1959355 L37.3239236,40.4998369 Z M38.1561914,39.1959355 L60.57149,4.07822423 L38.1561914,39.1959355 L27.8703175,0.370747658 L38.1561914,39.1959355 Z" id="Combined-Shape"></path>
                        </g>
                        <g id="Group-5">
                            <path d="M60.3380375,180.998009 C54.4376615,185.015301 50.7712372,190.110158 49.3387645,196.282579 C46.2206475,209.718321 44.3943136,227.625755 43.859763,250.004881 L28.0091308,250.004881 C28.7231794,224.534228 30.0314903,204.682781 31.9340635,190.450541 C33.8366367,176.218301 46.9787292,166.686535 71.360341,161.855244 L86.0930763,169.139418 C87.7489614,168.737865 89.4644171,168.361225 91.2394436,168.009498 C103.345376,165.657319 110.300391,165.667566 112.104486,168.040238 C114.81063,171.599246 110.280075,188.553903 104.978417,192.805548 C99.6772436,197.057278 75.0724105,183.681913 70.3952349,203.835527 C67.2771179,217.271269 65.0583281,234.712472 63.7388656,256.159136 L47.8882333,256.159136 C48.602282,230.688482 49.9105929,210.837035 51.813166,196.604795 C52.6222398,190.552501 55.4638636,185.350239 60.3380375,180.998009 Z" id="Combined-Shape" fill="#F77C68"></path>
                            <g id="Group-2" transform="translate(94.896446, 105.904571) rotate(5.000000) translate(-94.896446, -105.904571) translate(8.396446, 7.404571)">
                                <path d="M68.4725372,17.5672474 C74.8971054,5.85574912 83.1128862,6.59383659e-12 93.1198797,6.59383659e-12 C103.126873,6.59383659e-12 109.829375,2.62022783 113.227385,7.86068348 C122.259681,7.89838944 128.055793,14.1962433 130.61572,26.7542452 C132.02297,33.6576602 131.168917,42.1410134 127.501774,52.5369731 C126.353511,55.792174 129.631688,65.3333181 126.336823,76.045392 C123.167223,86.3502119 113.473977,97.8656278 109.810648,99.6010899 C103.57201,102.556577 96.1476666,101.752933 91.4215546,101.752933 C89.3883274,101.752933 87.2458234,101.752933 84.9940427,101.752933 C88.8860728,101.769349 84.9294499,101.052068 73.124174,99.6010899 C64.817696,98.5801468 63.4012534,91.7775324 61.0067764,81.7823239 C60.0931732,77.9686918 55.8910775,72.4228818 55.736809,68.4201883 C55.4334548,60.549275 56.4210277,53.7226262 55.2269636,49.5286961 C54.0306943,45.3270205 54.5447278,46.0382826 53.8225329,38.7878497 C53.5131663,35.6819831 74.5563482,32.7603398 74.5563482,23.4266605 C74.5563482,17.7996393 72.5284112,15.8465016 68.4725372,17.5672474 Z" id="Rectangle" fill="#F77C68"></path>
                                <path d="M89.3257819,67.8787369 L95.8170156,67.8787369 L104.96757,96.9865437 C100.413772,100.087442 96.5897847,101.570865 93.4956073,101.436813 C90.4014299,101.302761 85.8175938,99.4550772 79.744099,95.8937622 L89.3257819,67.8787369 Z" id="Rectangle" fill="#F3AE8C"></path>
                                <g id="Group-3" transform="translate(55.262495, 8.951042)">
                                    <path d="M44.5120075,49.1500922 C39.6681012,48.5094012 36.4052611,47.980107 34.7234874,47.5622094 C33.0417136,47.1443118 30.4314416,45.8188856 26.8926712,43.5859309" id="Line" stroke="#1D1F20" stroke-linecap="square"></path>
                                    <path d="M33.8476724,68.6246571 C33.1715487,68.6246571 71.2192121,53.9822679 71.2192121,34.7760087 C71.2192121,15.5697494 57.9946068,0 38.0206731,0 C18.0467395,0 4.82213415,15.5697494 4.82213415,34.7760087 C4.82213415,53.9822679 26.4321151,64.9152162 33.8476724,68.6246571 Z" id="Oval" fill="#F3AE8C"></path>
                                    <ellipse id="Oval" fill="#F3AE8C" cx="72.2392789" cy="39.5136098" rx="3.24566722" ry="3.70944092"></ellipse>
                                    <ellipse id="Oval-Copy-2" fill="#F3AE8C" cx="3.24566722" cy="37.2758493" rx="3.24566722" ry="3.70944092"></ellipse>
                                    <path d="M35.7150928,41.9516408 C36.5909592,41.8802666 37.2071161,41.6819769 37.5635633,41.3567716 C37.9200106,41.0315663 38.2311831,40.3838056 38.4970808,39.4134894" id="Line-4" stroke="#1D1F20" stroke-linecap="round" transform="translate(37.106087, 40.682565) rotate(14.000000) translate(-37.106087, -40.682565) "></path>
                                    <path d="M26.7072045,52.9603332 C26.7072045,54.5527287 28.0862473,55.5130353 30.844333,55.841253 C33.6024186,56.1694707 36.8600433,55.7114446 40.6172069,54.4671745" id="Line-2" stroke="#1D1F20" stroke-linecap="square"></path>
                                    <path d="M47.9299997,37.4705691 C49.05591,37.470327 49.4135964,35.7860716 49.4132382,33.7085323 C49.4128794,31.6309929 48.7483698,30.7578218 47.9288415,30.757998 C47.1093132,30.7581743 46.445105,31.6316311 46.4454633,33.7091705 C46.4458219,35.7867098 46.8040895,37.4708112 47.9299997,37.4705691 Z" id="Oval" fill="#1D1F20" transform="translate(47.929351, 34.114284) rotate(8.000000) translate(-47.929351, -34.114284) "></path>
                                    <path d="M21.964662,36.7246489 C23.0905722,36.7244068 23.4482586,35.0401514 23.4479004,32.9626121 C23.4475417,30.8850727 22.7830321,30.0119016 21.9635038,30.0120778 C21.1439755,30.0122541 20.4797672,30.8857109 20.4801256,32.9632503 C20.4804842,35.0407896 20.8387518,36.7248911 21.964662,36.7246489 Z" id="Oval-Copy" fill="#1D1F20" transform="translate(21.964013, 33.368363) rotate(8.000000) translate(-21.964013, -33.368363) "></path>
                                    <path d="M51.1888087,17.9197703 C52.7100808,17.908309 54.1916072,18.4052363 55.398286,19.3316953 L55.9750108,19.7744908" id="Line-3" stroke="#1D1F20" stroke-linecap="round"></path>
                                    <path d="M19.2885366,17.1738502 C20.8098087,17.1623888 22.2913351,17.6593161 23.498014,18.5857752 L24.0747388,19.0285706" id="Line-3-Copy" stroke="#1D1F20" stroke-linecap="round" transform="translate(21.681638, 18.092367) scale(-1, 1) translate(-21.681638, -18.092367) "></path>
                                </g>
                                <ellipse id="Oval-Copy-5" stroke="#7893D7" cx="77.1475652" cy="44.3822511" rx="9.2733349" ry="9.32400232"></ellipse>
                                <path d="M86.4209001,44.3822511 C88.4403014,43.5967819 90.0476795,43.1578209 91.2430343,43.0653681 C92.438389,42.9729154 94.0457671,43.1632363 96.0651684,43.6363309" id="Line-5" stroke="#7893D7" stroke-linecap="square"></path>
                                <path d="M114.611838,44.009291 C117.252594,43.5719084 119.35455,43.3274763 120.917706,43.2759947 C122.480862,43.2245131 124.582818,43.3304918 127.223574,43.593931" id="Line-5" stroke="#7893D7" stroke-linecap="square"></path>
                                <path d="M59.7136956,41.7715304 C61.4224198,41.3341479 62.7825089,41.0897158 63.7939629,41.0382341 C64.805417,40.9867525 66.1655061,41.0927313 67.8742303,41.3561704" id="Line-5-Copy" stroke="#7893D7" stroke-linecap="square"></path>
                                <path d="M69.5382318,7.86068348 C75.2523369,2.62022783 83.1128862,-1.80122584e-12 93.1198797,-1.80122584e-12 C103.126873,-1.80122584e-12 109.829375,2.62022783 113.227385,7.86068348 C122.259681,7.89838944 128.055793,14.1962433 130.61572,26.7542452 C132.02297,33.6576602 133.908803,42.9004699 126.481707,45.8510462 C120.917706,48.0614672 110.662475,20.2560153 108.844405,21.3349811 C103.827904,24.3121107 95.2842752,27.595933 83.2135192,31.1864482 C69.9303557,42.6202616 62.8978473,47.7822562 62.1159938,46.6724322 C60.5395269,44.4346717 54.5447278,46.0382826 53.8225329,38.7878497 C53.5131663,35.6819831 54.9450828,32.4899455 54.9450828,23.1562661 C54.9450828,17.5292449 59.8094658,12.4307174 69.5382318,7.86068348 Z" id="Rectangle" fill="#F77C68"></path>
                                <g id="Group" transform="translate(86.470232, 100.286571) rotate(6.000000) translate(-86.470232, -100.286571) translate(9.470232, 11.786571)">
                                    <g id="Group-8" transform="translate(0.700976, 0.318935)" fill="#F3AE8C">
                                        <polygon id="Rectangle" transform="translate(13.161338, 21.437124) scale(1, -1) rotate(18.000000) translate(-13.161338, -21.437124) " points="9.33393554 13.792924 17.0056692 13.7844593 16.9887398 29.0813238 9.31700606 29.0897885"></polygon>
                                        <path d="M5.44314869,6.58873183 C5.93028483,5.99957392 4.67962365,2.78665039 7.28023392,2.39461539 C10.2823414,1.94205577 8.72612788,4.14007084 10.0044382,4.13866039 C10.606112,4.13799653 7.93975833,2.39388769 11.2427714,2.39024326 C14.4781175,2.38667348 12.4659959,4.13594439 14.0215153,4.13422808 C14.3760668,4.13383688 12.9187467,1.79727169 15.3426656,3.15286455 C17.8884405,4.57660621 17.1843172,6.41482013 17.4332261,6.57550237 C17.9332768,6.89830828 16.7088071,2.80192604 18.2153979,4.69885643 C19.7219886,6.59578681 19.8981686,9.15468674 17.9235957,15.6457529 C16.6072138,19.9731303 15.7404902,21.6038936 15.3234249,20.5380429 L8.70797169,20.5453422 C6.56012522,17.1748512 5.09567799,14.7929834 4.31463001,13.3997387 C1.59258915,8.5441226 2.77402691,6.37979623 3.65877502,4.71491773 C5.49622514,1.25728821 4.95601256,7.17788974 5.44314869,6.58873183 Z" id="Rectangle" transform="translate(11.001231, 11.593615) scale(-1, 1) rotate(18.000000) translate(-11.001231, -11.593615) "></path>
                                    </g>
                                    <g id="Group-9" transform="translate(138.730264, 151.955027) scale(1, -1) rotate(-7.000000) translate(-138.730264, -151.955027) translate(127.230264, 128.455027)" fill="#F3AE8C">
                                        <path d="M4.44857573,4.59187919 C5.02439049,3.95733206 3.20302491,1.37421603 6.28065878,0.954686071 C9.83343551,0.470386664 8.33118446,1.95606802 9.84422272,1.95606802 C10.5563781,1.95606802 8.274091,0.459997318 12.1836152,0.459997318 C16.0130472,0.459997318 12.7577805,1.95606802 14.5989299,1.95606802 C15.0185854,1.95606802 15.0293724,0.491822791 17.9001592,1.95606802 C20.9152672,3.49392428 18.345489,4.41836376 18.6403142,4.59187919 C19.2326096,4.94046661 19.8396579,2.88968223 21.6253813,4.93641137 C23.4111048,6.9831405 21.5612605,7.37523466 19.2326096,14.3704132 C17.6801757,19.0338656 16.6564361,20.7908373 16.161391,19.6413282 L8.33118446,19.6413282 C5.9718606,15.8169733 4.23538406,13.2475199 3.12175485,11.932968 C-1.22228124,6.80517421 0.205357171,6.99060287 1.25038628,5.1968757 C3.42070891,1.4716525 3.87276097,5.22642633 4.44857573,4.59187919 Z" id="Rectangle"></path>
                                        <rect id="Rectangle" x="8.50085565" y="17.1914239" width="9.24079689" height="28.8186374"></rect>
                                    </g>
                                    <path d="M72.1800494,76.1092642 C74.0222633,76.7326828 77.7197615,80.1125404 83.2725441,86.248837 C89.2300892,78.4384639 93.1255577,74.3937602 94.9589494,74.1147258 C99.3758515,73.442492 102.243381,74.0064461 107.870571,76.0951745 C128.934953,82.2816275 142.74304,94.1805289 149.29483,111.791879 C151.047046,116.501873 151.170401,129.277656 149.664896,150.119227 C149.648838,150.341527 149.617934,150.562504 149.572391,150.780681 C149.008126,153.483837 146.359357,155.21775 143.6562,154.653488 L135.60309,152.972455 C135.347658,152.919136 135.096792,152.845902 134.852791,152.753426 C132.270594,151.77478 130.97066,148.888147 131.949314,146.305953 C135.603881,136.663234 135.946006,127.220429 132.97569,117.977538 C132.234589,115.671415 128.699423,107.874362 121.350944,102.449516 C120.143693,101.558291 118.920945,100.758692 117.682698,100.050719 C113.365868,105.687086 109.9674,112.945646 110.208514,119.2215 C111.298831,147.600958 106.642532,155.784964 87.5664373,155.784964 C80.1054364,155.784964 73.1159738,155.954937 68.2358575,154.730081 C61.3480954,153.001327 55.8349358,152.568397 54.8002113,144.727938 C53.7938625,137.102491 53.9614681,129.22086 53.9614681,119.2215 C53.9614681,116.176612 53.0196101,106.830806 51.746211,105.033201 C50.8110157,103.713025 49.7678604,102.69578 48.7646003,101.767392 C42.0470379,101.493167 35.898689,96.5189756 30.3195537,86.8448181 C21.880641,72.211839 14.9661477,53.3596689 9.5760738,30.2883079 C9.11623823,28.3200543 9.88667781,26.2685384 11.5284488,25.0895308 C12.2583207,24.5653912 12.9640227,24.217285 13.6455546,24.045212 C14.6021239,23.8036977 15.898787,23.811076 17.5355439,24.0673469 C19.0474292,24.3040663 20.3676608,25.2201026 21.1186458,26.5534649 L21.1186261,26.5534759 C21.1186258,26.5534752 21.1186042,26.5534211 21.1185615,26.5533136 C31.2972261,52.1755552 42.0261828,76.2711419 46.7289053,76.8535728 C53.0611699,77.637822 60.3863295,77.5249644 68.7043839,76.5149999 C69.5911296,76.3490877 70.5107966,76.1830647 71.4633848,76.0169309 C71.627491,75.9883103 71.8224217,76.0054865 72.0481769,76.0684594 C72.1090837,76.0596097 72.1700404,76.0507149 72.2310473,76.0417749 L72.1800494,76.1092642 Z" id="Combined-Shape" fill="#F0EE64"></path>
                                </g>
                                <ellipse id="Oval" stroke="#7893D7" cx="105.338503" cy="45.1281712" rx="9.2733349" ry="9.32400232"></ellipse>
                            </g>
                            <path d="M5.93493434,249.504175 L10.0493189,249.504175 C12.726655,247.523358 14.5452064,246.765987 15.5049731,247.232062 C16.4647398,247.698136 16.4647398,249.338618 15.5049731,252.153508 C26.6431936,251.70098 33.6145035,252.197336 36.4189028,253.642577 C39.2233021,255.087817 40.4080839,257.879392 39.9732481,262.017301 L5.93493434,262.017301 L5.93493434,249.504175 Z" id="Rectangle" fill="#F0EE64" transform="translate(22.997871, 254.558099) scale(-1, 1) translate(-22.997871, -254.558099) "></path>
                            <path d="M29.6746717,256.122794 L33.3572465,256.122794 C33.5865468,253.93801 34.1581481,252.563129 35.0720502,251.998152 C35.9859523,251.433174 37.6383449,251.433174 40.029228,251.998152 L40.029228,255.518031 C48.2371972,255.014533 53.8583288,255.566796 56.8926227,257.17482 C59.9269167,258.782843 61.2088226,261.888844 60.7383405,266.492822 L29.6746717,266.492822 L29.6746717,256.122794 Z" id="Rectangle" fill="#F0EE64" transform="translate(45.253874, 259.033620) scale(-1, 1) translate(-45.253874, -259.033620) "></path>
                        </g>
                    </g>
                </g>
            </g>
        </g>
    </g>
</svg>